<svg xmlns="http://www.w3.org/2000/svg" id="prefix__Group_2726" width="82" height="82" data-name="Group 2726" viewBox="0 0 82 82">
    <defs>
        <style>
            .prefix__cls-3{fill:#a5a5a5}.prefix__cls-4{fill:#0a0a0a}
        </style>
    </defs>
    <rect id="prefix__Rectangle_524" width="82" height="82" fill="#f5f5f5" data-name="Rectangle 524" rx="3"/>
    <g id="prefix__Group_2744" data-name="Group 2744" transform="translate(-36.66 9.533)">
        <path id="prefix__Path_2139" fill="#fff" d="M129.569 262.673a6.865 6.865 0 0 0-6.867-6.867h-3l-4.474 10.337a1.769 1.769 0 0 1-3.24 0l-4.474-10.337h-3c-6.449 0-6.867 6.7-6.867 6.7v11.905h31.922v-11.738z" data-name="Path 2139" transform="translate(-35.712 -214.446)"/>
        <g id="prefix__Group_2744-2" data-name="Group 2744" transform="translate(65.447 44.883)">
            <path id="prefix__Path_2140" d="M223.059 277.592h-.69l-5 11.54h9.031v-8.195a3.361 3.361 0 0 0-3.341-3.345z" class="prefix__cls-3" data-name="Path 2140" transform="translate(-201.527 -277.592)"/>
            <path id="prefix__Path_2141" d="M122.715 277.592a3.328 3.328 0 0 0-2.937 1.777h2.922a1.766 1.766 0 1 1 0 3.533h-3.33v1.547h1.463a1.766 1.766 0 1 1 0 3.533h-1.463v1.171h9.03l-5-11.54h-.69v-.021z" class="prefix__cls-3" data-name="Path 2141" transform="translate(-119.37 -277.592)"/>
        </g>
        <path id="prefix__Path_2142" d="M161.019 99.1a6.8 6.8 0 1 0 6.8 6.8 6.812 6.812 0 0 0-6.8-6.8z" class="prefix__cls-3" data-name="Path 2142" transform="translate(-83.133 -83.079)"/>
        <g id="prefix__Group_2745" data-name="Group 2745" transform="translate(55.047)">
            <path id="prefix__Path_2143" d="M142.7 97.928a10.337 10.337 0 1 0-10.336-10.338A10.347 10.347 0 0 0 142.7 97.928zm0-17.142a6.8 6.8 0 1 1-6.8 6.8 6.805 6.805 0 0 1 6.8-6.8z" class="prefix__cls-4" data-name="Path 2143" transform="translate(-119.863 -64.762)"/>
            <path id="prefix__Path_2144" d="M63.44 132.094a1.764 1.764 0 0 0-1.766-1.766h-4.86a1.766 1.766 0 1 0 0 3.533h4.871a1.776 1.776 0 0 0 1.755-1.767z" class="prefix__cls-4" data-name="Path 2144" transform="translate(-55.047 -109.256)"/>
            <path id="prefix__Path_2145" d="M97.176 44.627a1.766 1.766 0 0 0 2.5-2.5l-3.441-3.437a1.766 1.766 0 0 0-2.5 2.5z" class="prefix__cls-4" data-name="Path 2145" transform="translate(-87.048 -32.001)"/>
            <path id="prefix__Path_2146" d="M187.14 8.393a1.764 1.764 0 0 0 1.766-1.766V1.766a1.766 1.766 0 0 0-3.533 0v4.86a1.764 1.764 0 0 0 1.767 1.767z" class="prefix__cls-4" data-name="Path 2146" transform="translate(-164.302)"/>
            <path id="prefix__Path_2147" d="M259.328 44.607l3.439-3.439a1.767 1.767 0 0 0-2.5-2.5l-3.428 3.439a1.763 1.763 0 0 0 2.488 2.5z" class="prefix__cls-4" data-name="Path 2147" transform="translate(-223.779 -31.98)"/>
            <path id="prefix__Path_2148" d="M292.2 130.327h-4.86a1.766 1.766 0 0 0 0 3.533h4.86a1.766 1.766 0 0 0 0-3.533z" class="prefix__cls-4" data-name="Path 2148" transform="translate(-248.303 -109.255)"/>
            <path id="prefix__Path_2149" d="M104.428 233.9h-4.16a1.754 1.754 0 0 0-1.62 1.066l-3.313 7.651-3.313-7.662a1.745 1.745 0 0 0-1.61-1.066h-4.16a10.392 10.392 0 0 0-10.39 10.4v13.484a1.764 1.764 0 0 0 1.766 1.766h35.455a1.764 1.764 0 0 0 1.766-1.766v-13.482a10.436 10.436 0 0 0-10.421-10.391zm6.857 22.128H79.364v-11.904s.429-6.7 6.867-6.7h3l4.469 10.337a1.769 1.769 0 0 0 3.24 0l4.474-10.337h3a6.865 6.865 0 0 1 6.867 6.867v11.738z" class="prefix__cls-4" data-name="Path 2149" transform="translate(-72.497 -196.074)"/>
        </g>
    </g>
</svg>
