<svg xmlns="http://www.w3.org/2000/svg" width="35.485" height="29.108" viewBox="0 0 35.485 29.108">
    <path d="M32.297 20.789h-10.4a5.192 5.192 0 0 0-4.158 2.083 5.192 5.192 0 0 0-4.154-2.083H3.189a1.04 1.04 0 0 0-1.04 1.04v1.04h8.718a12.243 12.243 0 0 1 6.876 1.831 12.243 12.243 0 0 1 6.876-1.831h8.718v-1.04a1.04 1.04 0 0 0-1.04-1.04z" data-name="Path 1958"/>
    <g data-name="Group 2538">
        <path d="M15.791 28.423a7.725 7.725 0 0 0-4.925-1.394H1.04a1.04 1.04 0 1 1 0-2.079h9.827a9.711 9.711 0 0 1 6.227 1.851 1.038 1.038 0 0 0 1.3 0 9.711 9.711 0 0 1 6.225-1.854h9.827a1.04 1.04 0 1 1 0 2.079h-9.827a7.726 7.726 0 0 0-4.925 1.394 3.121 3.121 0 0 1-3.9 0z" data-name="Path 1959"/>
    </g>
    <path d="M25.019 10.518v3a1.04 1.04 0 0 1-.575.93l-4.6 2.3a5.691 5.691 0 0 0-1.379.97 1.041 1.041 0 0 1-1.437 0 5.691 5.691 0 0 0-1.386-.976l-4.6-2.3a1.04 1.04 0 0 1-.575-.93v-2.994l6.421 1.835a3.12 3.12 0 0 0 1.713 0z" data-name="Path 1960"/>
    <g data-name="Group 2539">
        <path d="M29.178 9.333v6.261a1.04 1.04 0 1 1-2.079 0V9.927z" data-name="Path 1961"/>
    </g>
    <g data-name="Group 2540">
        <path d="M17.457 10.357L2.903 6.198a1.041 1.041 0 0 1 0-2L17.457.04a1.039 1.039 0 0 1 .571 0l14.555 4.158a1.041 1.041 0 0 1 0 2l-14.555 4.159a1.04 1.04 0 0 1-.571 0z" data-name="Path 1962"/>
    </g>
</svg>
