<svg xmlns="http://www.w3.org/2000/svg" width="82" height="82" viewBox="0 0 82 82">
    <defs>
        <style>
            .prefix__cls-2{fill:#b1b1b1}.prefix__cls-3{fill:#fff}.prefix__cls-4{fill:#0a0a0a}
        </style>
    </defs>
    <g id="prefix__Group_2616" data-name="Group 2616" transform="translate(-533 -1084)">
        <rect id="prefix__Rectangle_525" width="82" height="82" data-name="Rectangle 525" rx="3" transform="translate(533 1084)" style="fill:#f5f5f5"/>
        <g id="prefix__Group_2604" data-name="Group 2604" transform="translate(486.045 1037.136)">
            <path id="prefix__Rectangle_1654" d="M0 0H4.298V6.954H0z" class="prefix__cls-2" data-name="Rectangle 1654" transform="translate(86.074 62.841)"/>
            <path id="prefix__Path_1974" d="M128.711 187.216h-12.64v.713a1.584 1.584 0 0 1-1.586 1.586H99.208a1.584 1.584 0 0 1-1.586-1.586v-.713h-12.64a3.466 3.466 0 0 0-3.463 3.463v28.386a3.466 3.466 0 0 0 3.463 3.463h43.729a3.466 3.466 0 0 0 3.463-3.463v-28.377a3.474 3.474 0 0 0-3.463-3.472z" class="prefix__cls-3" data-name="Path 1974" transform="translate(-18.624 -109.033)"/>
            <path id="prefix__Rectangle_1655" d="M0 0H12.105V4.354H0z" class="prefix__cls-2" data-name="Rectangle 1655" transform="translate(82.17 72.966)"/>
            <path id="prefix__Path_1975" d="M110.087 75.021h-12.64v-3.632a1.584 1.584 0 0 0-1.586-1.589h-2.318v-8.545a1.584 1.584 0 0 0-1.586-1.586H84.5a1.584 1.584 0 0 0-1.586 1.586V69.8h-2.32a1.584 1.584 0 0 0-1.586 1.586v3.632h-12.65a6.63 6.63 0 0 0-6.625 6.625v28.386a6.63 6.63 0 0 0 6.625 6.625h43.729a6.63 6.63 0 0 0 6.625-6.625V81.655a6.638 6.638 0 0 0-6.625-6.634zm3.463 35.012a3.466 3.466 0 0 1-3.463 3.463H66.358a3.466 3.466 0 0 1-3.463-3.463V81.655a3.466 3.466 0 0 1 3.463-3.463H79v.713a1.584 1.584 0 0 0 1.586 1.586h15.266a1.584 1.584 0 0 0 1.586-1.586v-.713h12.64a3.466 3.466 0 0 1 3.463 3.463v28.377zM86.074 62.841h4.3v6.954h-4.3zm8.2 10.125v4.354H82.17v-4.354z" class="prefix__cls-4" data-name="Path 1975"/>
            <path id="prefix__Path_1976" d="M104.956 209.067a1.584 1.584 0 0 0-1.586 1.586v25.806a1.584 1.584 0 0 0 1.586 1.586h41.158a1.6 1.6 0 0 0 1.586-1.586v-25.806a1.6 1.6 0 0 0-1.586-1.586z" class="prefix__cls-2" data-name="Path 1976" transform="translate(-37.303 -127.712)"/>
            <path id="prefix__Path_1977" d="M175.237 241a2.89 2.89 0 1 0 2.89 2.89 2.9 2.9 0 0 0-2.89-2.89z" class="prefix__cls-3" data-name="Path 1977" transform="translate(-96.267 -155.011)"/>
            <path id="prefix__Path_1978" d="M156.615 219.216a6.053 6.053 0 1 0 6.053 6.053 6.055 6.055 0 0 0-6.053-6.053zm0 8.962a2.89 2.89 0 1 1 2.89-2.89 2.9 2.9 0 0 1-2.89 2.89z" class="prefix__cls-4" data-name="Path 1978" transform="translate(-77.644 -136.387)"/>
            <path id="prefix__Path_1979" d="M154.336 336.738a3.029 3.029 0 0 0-2.2-2.909 19.763 19.763 0 0 0-11.148 0 3.018 3.018 0 0 0-2.2 2.909v1.839h15.559v-1.839z" class="prefix__cls-2" data-name="Path 1979" transform="translate(-67.586 -233.677)"/>
            <g id="prefix__Group_2604-2" data-name="Group 2604" transform="translate(68.038 87.399)">
                <path id="prefix__Path_1980" d="M134.362 312.161a22.83 22.83 0 0 0-12.94 0 6.157 6.157 0 0 0-4.476 5.949v3.425a1.584 1.584 0 0 0 1.586 1.586h18.721a1.584 1.584 0 0 0 1.586-1.586v-3.425a6.2 6.2 0 0 0-4.477-5.949zm-14.254 5.94a3.029 3.029 0 0 1 2.2-2.909 19.763 19.763 0 0 1 11.148 0 3.029 3.029 0 0 1 2.2 2.909v1.839h-15.54z" class="prefix__cls-4" data-name="Path 1980" transform="translate(-116.945 -302.439)"/>
                <path id="prefix__Path_1981" d="M309.141 253.871h-10.763a1.586 1.586 0 0 1 0-3.172h10.773a1.586 1.586 0 1 1-.009 3.172z" class="prefix__cls-4" data-name="Path 1981" transform="translate(-270.686 -250.699)"/>
                <path id="prefix__Path_1982" d="M309.141 313.734h-10.763a1.586 1.586 0 0 1 0-3.172h10.773a1.586 1.586 0 1 1-.009 3.172z" class="prefix__cls-4" data-name="Path 1982" transform="translate(-270.686 -301.872)"/>
                <path id="prefix__Path_1983" d="M309.141 373.661h-10.763a1.586 1.586 0 0 1 0-3.172h10.773a1.586 1.586 0 1 1-.009 3.172z" class="prefix__cls-4" data-name="Path 1983" transform="translate(-270.686 -353.101)"/>
            </g>
        </g>
    </g>
</svg>
