<svg xmlns="http://www.w3.org/2000/svg" width="27.536" height="30.277" data-name="Group 1745" viewBox="0 0 27.536 30.277">
    <path d="M27.432 28.114c-1.387-1.1-2.709-1.955-1.749-4.307a6.334 6.334 0 00-2.978-7.767 6.882 6.882 0 00-9.319 9.55 6.586 6.586 0 008.028 2.782c1.439-.561 2.282-.344 3.105.8.255.358.568.671.854 1.005q2.639.574 2.059-2.063zm-8.173-2.066a4.1 4.1 0 114.049-4.159 4.069 4.069 0 01-4.044 4.159z" data-name="Path 1306"/>
    <path d="M20.815 7.065c-2.072-1.962-4.052-4.021-6.076-6.035A3.107 3.107 0 0012.47.004C9.275.018 6.077-.024 2.879.021A2.629 2.629 0 00.028 2.775q-.057 10.963 0 21.927a2.5 2.5 0 002.551 2.682c2.823.11 5.653.031 8.655.031-2.258-4.069-2.327-7.942.534-11.488 2.561-3.178 6.008-4.155 10.187-3.216-.183-2.045.56-4.035-1.14-5.646zm-6.62 2.548c-1.291.021-1.88-.554-1.856-1.856.034-1.8.007-3.594.007-5.405 2.468 2.4 4.851 4.706 7.471 7.254-2.097 0-3.86-.021-5.623.006z" data-name="Path 1307"/>
</svg>
