<?xml version="1.0" encoding="UTF-8"?>
<svg width="205px" height="109px" viewBox="0 0 205 109" version="1.1" xmlns="http://www.w3.org/2000/svg" xmlns:xlink="http://www.w3.org/1999/xlink">
    <!-- Generator: Sketch 50.2 (55047) - http://www.bohemiancoding.com/sketch -->
    <title>Group</title>
    <desc>Created with Sketch.</desc>
    <defs></defs>
    <g id="Page-1" stroke="none" stroke-width="1" fill="none" fill-rule="evenodd">
        <g id="The-Incircle-Dashboard-final" transform="translate(-858.000000, -19.000000)">
            <g id="Group" transform="translate(859.000000, 20.000000)">
                <rect id="Rectangle-path" fill="#00A0E4" fill-rule="nonzero" x="46" y="38" width="3" height="14"></rect>
                <polygon id="Shape" fill="#00A0E4" points="52 38 54.4278146 38 62.4206623 47.679132 62.4206623 38 65 38 65 52 62.8063576 52 54.575894 42.0397045 54.575894 52 52 52"></polygon>
                <path d="M83.8961779,73.5036033 C70.1517699,94.1552692 42.7919112,100.155956 21.8548892,87.1107766 C0.917867243,74.0655973 -6.1552482,46.6108411 5.81587375,24.8542982 C17.7869957,3.09775531 44.5477885,-5.22824475 66.4987189,5.97423825 C50.5660518,-0.511408167 32.3372344,3.6545003 20.6913553,16.4427882 C9.04547618,29.231076 6.4041243,47.9826071 14.0538777,63.5636841 C21.7036312,79.1447611 38.0538364,88.3155284 55.1404596,86.6089901 C72.2270828,84.9024518 86.4972123,72.6734575 91,55.8786371 C89.8610496,62.1887091 87.4420603,68.1903523 83.8961779,73.5036033 Z" id="Shape" fill="#00A0E4" fill-rule="nonzero"></path>
                <path d="M83.8961779,73.5036033 C70.1517699,94.1552692 42.7919112,100.155956 21.8548892,87.1107766 C0.917867243,74.0655973 -6.1552482,46.6108411 5.81587375,24.8542982 C17.7869957,3.09775531 44.5477885,-5.22824475 66.4987189,5.97423825 C50.5660518,-0.511408167 32.3372344,3.6545003 20.6913553,16.4427882 C9.04547618,29.231076 6.4041243,47.9826071 14.0538777,63.5636841 C21.7036312,79.1447611 38.0538364,88.3155284 55.1404596,86.6089901 C72.2270828,84.9024518 86.4972123,72.6734575 91,55.8786371 C89.8610496,62.1887091 87.4420603,68.1903523 83.8961779,73.5036033 Z" id="Shape" stroke="#00A0E4" stroke-width="0.87"></path>
                <path d="M110.361394,17.0073421 C129.917557,-3.95390495 162.522949,-5.77974316 184.297941,12.8670399 C206.072933,31.513823 209.278852,64.0062964 191.567737,86.5475306 C173.856622,109.088765 141.522875,113.667769 118.247177,96.9309599 C135.438342,107.209368 157.193119,105.80098 172.91494,93.391811 C188.636761,80.9826417 195.0565,60.1529996 189.047155,41.0488266 C183.037811,21.9446535 165.84894,8.53838862 145.853097,7.36010963 C125.857253,6.18183064 107.212286,17.4765438 99,35.7426903 C101.44905,28.7785496 105.317853,22.3987526 110.361394,17.0073421 Z" id="Shape" fill="#636467" fill-rule="nonzero"></path>
                <path d="M110.361394,17.0073421 C129.917557,-3.95390495 162.522949,-5.77974316 184.297941,12.8670399 C206.072933,31.513823 209.278852,64.0062964 191.567737,86.5475306 C173.856622,109.088765 141.522875,113.667769 118.247177,96.9309599 C135.438342,107.209368 157.193119,105.80098 172.91494,93.391811 C188.636761,80.9826417 195.0565,60.1529996 189.047155,41.0488266 C183.037811,21.9446535 165.84894,8.53838862 145.853097,7.36010963 C125.857253,6.18183064 107.212286,17.4765438 99,35.7426903 C101.44905,28.7785496 105.317853,22.3987526 110.361394,17.0073421 Z" id="Shape" stroke="#636467"></path>
                <polygon id="Shape" fill="#636467" points="20.1258503 44.6281476 17 44.6281476 17 43 25 43 25 44.6281476 21.8741497 44.6281476 21.8741497 53 20.1258503 53"></polygon>
                <polygon id="Shape" fill="#636467" points="25 43 26.695254 43 26.695254 47.1566057 31.3014155 47.1566057 31.3014155 43 33 43 33 53 31.3014155 53 31.3014155 48.7847534 26.695254 48.7847534 26.695254 53 25 53"></polygon>
                <polygon id="Shape" fill="#636467" points="36 43 42.9322581 43 42.9322581 44.5729562 37.6419355 44.5729562 37.6419355 47.1704036 42.3322581 47.1704036 42.3322581 48.7433598 37.6419355 48.7433598 37.6419355 51.4270438 43 51.4270438 43 53 36 53"></polygon>
                <path d="M76.8045933,52.9596609 C75.7374971,52.9704485 74.6794602,52.7738616 73.6962814,52.3821259 C72.7690288,52.0148823 71.9278001,51.4782539 71.2209477,50.8030851 C70.519178,50.1220886 69.965374,49.3180111 69.5907636,48.4361931 C69.1934795,47.5106632 68.9928262,46.5204226 69.0002197,45.5218112 L69.0002197,45.481751 C68.9924768,44.4873089 69.1894367,43.5009163 69.5801551,42.5773842 C69.9545206,41.692478 70.5082713,40.8850759 71.2103391,40.2004771 C71.9208934,39.5118779 72.7695787,38.9637454 73.70689,38.5880528 C74.7139498,38.1885692 75.7971832,37.9885882 76.8894619,38.0005027 C77.5324829,37.9952672 78.174477,38.0500601 78.8060774,38.164082 C79.3511671,38.2639363 79.8834254,38.4183734 80.3938272,38.6247747 C80.863949,38.8167251 81.3118735,39.0538873 81.7305074,39.3325054 C82.139672,39.6061307 82.5273094,39.9073703 82.8903781,40.2338606 L81.1611807,42.1133532 C80.5785623,41.5964376 79.9228387,41.15828 79.2127394,40.8113956 C78.4857165,40.4714227 77.6829874,40.3008561 76.871781,40.3139811 C76.1732419,40.3074707 75.4816547,40.4453421 74.8455435,40.7179218 C74.239164,40.977571 73.6952836,41.3513005 73.2471852,41.8162398 C72.7897934,42.2913431 72.4300502,42.8426543 72.1863278,43.4420175 C71.9267224,44.0810717 71.7971538,44.7606257 71.8044192,45.4450291 L71.8044192,45.4850893 C71.7994398,46.1684181 71.9252252,46.8469787 72.1757193,47.4881009 C72.4120092,48.0938932 72.7725033,48.6497583 73.2365766,49.1238937 C73.6901811,49.5873829 74.2371799,49.9607769 74.8455435,50.2222117 C75.4816905,50.4946883 76.1732533,50.6325548 76.871781,50.6261524 C77.7053322,50.6470166 78.531766,50.4763126 79.279927,50.1287378 C80.0054047,49.7612948 80.6750673,49.3031484 81.2708026,48.76669 L83,50.4358663 C82.6201351,50.8232936 82.2060905,51.1795529 81.7623331,51.5008008 C81.3286952,51.8120956 80.8631323,52.0816208 80.3726101,52.3053437 C79.8536832,52.5401319 79.3061965,52.7139123 78.742426,52.8227884 C78.0976084,52.9453134 77.4411052,53.0046059 76.7833762,52.9997211" id="Shape" fill="#636467"></path>
                <rect id="Rectangle-path" fill="#636467" fill-rule="nonzero" x="84" y="38" width="3" height="14"></rect>
                <path d="M96.6200435,44.94237 C97.4418915,44.9835769 98.2536445,44.7606862 98.9149919,44.3122245 C99.4794606,43.8986422 99.79536,43.2639924 99.7658881,42.6027528 L99.7658881,42.5639746 C99.8120543,41.898628 99.5027438,41.2541216 98.936176,40.8351138 C98.2506019,40.4055761 97.4281382,40.1974836 96.5988593,40.2437464 L92.6903857,40.2437464 L92.6903857,44.94237 L96.6200435,44.94237 Z M90,38.0010746 L96.8177621,38.0010746 C97.686751,37.986979 98.5517727,38.1116427 99.3739815,38.3694674 C100.066134,38.5881928 100.699292,38.9396432 101.231124,39.4003209 C101.638035,39.7860749 101.957256,40.2419063 102.170288,40.7413998 C102.395252,41.2773836 102.506686,41.8476627 102.498642,42.4217879 L102.498642,42.4605661 C102.550823,43.4677088 102.187927,44.4560716 101.481803,45.2299749 C100.784926,45.94141 99.8772394,46.4522237 98.8690929,46.7003145 L103,52 L99.8223791,52 L96.0621945,47.1204115 L92.6903857,47.1204115 L92.6903857,52 L90.0035307,52 L90,38.0010746 Z" id="Shape" fill="#636467"></path>
                <path d="M111.804593,52.9596609 C110.737497,52.9704485 109.67946,52.7738616 108.696281,52.3821259 C107.769029,52.0148823 106.9278,51.4782539 106.220948,50.8030851 C105.519178,50.1220886 104.965374,49.3180111 104.590764,48.4361931 C104.19348,47.5106632 103.992826,46.5204226 104.00022,45.5218112 L104.00022,45.481751 C103.992477,44.4873089 104.189437,43.5009163 104.580155,42.5773842 C104.95444,41.6924385 105.5082,40.8850223 106.210339,40.2004771 C106.920832,39.5118093 107.769533,38.9636668 108.70689,38.5880528 C109.71395,38.1885692 110.797183,37.9885882 111.889462,38.0005027 C112.532483,37.9952672 113.174477,38.0500601 113.806077,38.164082 C114.351167,38.2639363 114.883425,38.4183734 115.393827,38.6247747 C115.863938,38.8167464 116.31186,39.0539073 116.730507,39.3325054 C117.139672,39.6061307 117.527309,39.9073703 117.890378,40.2338606 L116.161181,42.1133532 C115.57862,41.5963708 114.922886,41.1582064 114.212739,40.8113956 C113.485716,40.4714227 112.682987,40.3008561 111.871781,40.3139811 C111.174421,40.3078504 110.484072,40.4457157 109.84908,40.7179218 C109.24265,40.9774896 108.698753,41.3512303 108.250721,41.8162398 C107.793263,42.2912961 107.433512,42.8426196 107.189864,43.4420175 C106.930259,44.0810717 106.80069,44.7606257 106.807955,45.4450291 L106.807955,45.4850893 C106.802976,46.1684181 106.928761,46.8469787 107.179255,47.4881009 C107.415545,48.0938932 107.776039,48.6497583 108.240113,49.1238937 C108.693654,49.5874502 109.240668,49.9608547 109.84908,50.2222117 C110.484107,50.494315 111.174432,50.6321754 111.871781,50.6261524 C112.705332,50.6470166 113.531766,50.4763126 114.279927,50.1287378 C115.005405,49.7612948 115.675067,49.3031484 116.270803,48.76669 L118,50.4358663 C117.620039,50.8232024 117.206003,51.1794544 116.762333,51.5008008 C116.328695,51.8120956 115.863132,52.0816208 115.37261,52.3053437 C114.853697,52.5401631 114.306206,52.7139448 113.742426,52.8227884 C113.097608,52.9453134 112.441105,53.0046059 111.783376,52.9997211" id="Shape" fill="#636467"></path>
                <polygon id="Shape" fill="#636467" points="120 38 122.504113 38 122.504113 49.7603878 130 49.7603878 130 52 120 52"></polygon>
                <polygon id="Shape" fill="#636467" points="133 38 143.891492 38 143.891492 40.1975993 135.580456 40.1975993 135.580456 43.8397969 142.948829 43.8397969 142.948829 46.0373961 135.580456 46.0373961 135.580456 49.799169 144 49.799169 144 52 133 52"></polygon>
                <rect id="Rectangle-path" fill="#636467" fill-rule="nonzero" x="146" y="49" width="3" height="3"></rect>
                <path d="M155.462347,50.9979275 C154.851495,51.0036762 154.245839,50.8976719 153.683012,50.6865012 C153.158387,50.4865966 152.682526,50.197832 152.281961,49.8363073 C151.881132,49.474448 151.564522,49.045841 151.350263,48.5750308 C151.120785,48.087705 151.001756,47.564897 151,47.0365848 L151,47.0085564 C151.000644,46.4741004 151.119663,45.9449891 151.350263,45.4514249 C151.564649,44.9745865 151.883765,44.540517 152.288967,44.174577 C152.695948,43.8095724 153.177376,43.5168084 153.707531,43.3119262 C154.274272,43.0978443 154.885187,42.9917548 155.500876,43.0004998 C155.871319,42.9971542 156.24113,43.0284692 156.604203,43.0939277 C156.919461,43.1517832 157.226201,43.2416479 157.518389,43.3617544 C157.79138,43.4752583 158.048766,43.6163289 158.285464,43.7821799 C158.520185,43.9464962 158.741413,44.1255023 158.947461,44.3178331 L157.707531,45.4919103 C157.420969,45.2241939 157.094528,44.9926257 156.737303,44.8036582 C156.356254,44.6164336 155.925523,44.5239178 155.490368,44.5358316 C155.146308,44.5330272 154.806074,44.6001332 154.495622,44.7320301 C154.196251,44.8593683 153.92744,45.0370362 153.704028,45.2552263 C153.475236,45.4812281 153.297991,45.7445881 153.182137,46.0306778 C153.05724,46.3296589 152.993194,46.646019 152.992995,46.9649568 L152.992995,46.9929851 C152.991326,47.3191633 153.055385,47.6429699 153.182137,47.9490639 C153.299432,48.2387223 153.479078,48.5052865 153.711033,48.7338582 C153.939468,48.956543 154.217355,49.134692 154.527145,49.2570544 C155.260968,49.5320253 156.093725,49.5058257 156.803853,49.1854263 C157.173211,49.0010693 157.511603,48.7714839 157.809107,48.5034027 L159,49.5466809 C158.586372,49.9643218 158.094588,50.3151801 157.54641,50.5837305 C156.902448,50.8766522 156.185294,51.0191831 155.462347,50.9979275" id="Shape" fill="#636467"></path>
                <path d="M164.010683,49.4588811 C164.639112,49.470683 165.242874,49.2093217 165.671589,48.739895 C165.872933,48.5181202 166.027493,48.2564431 166.125672,47.971109 C166.230239,47.6714552 166.282835,47.3554717 166.281096,47.0373607 L166.281096,47.0093483 C166.28324,46.6817256 166.225357,46.3565843 166.110434,46.0507001 C166.0027,45.7614501 165.841271,45.4961785 165.635019,45.269464 C165.429748,45.046 165.183253,44.8661792 164.909706,44.74034 C164.316315,44.479704 163.644101,44.479704 163.050709,44.74034 C162.78063,44.8648254 162.537257,45.0425194 162.334539,45.2632391 C162.132268,45.4866779 161.977641,45.7505884 161.880456,46.0382501 C161.777129,46.3382331 161.72457,46.6539951 161.725032,46.9719983 L161.725032,47.0000108 C161.722802,47.3246072 161.780707,47.6467055 161.895694,47.9493215 C162.004595,48.23612 162.165936,48.4991349 162.371109,48.7243325 C162.57638,48.9477966 162.822875,49.1276174 163.096422,49.2534565 C163.383681,49.3856508 163.695623,49.4525549 164.010683,49.4495437 L164.010683,49.4588811 Z M163.983255,50.9871158 C163.44099,50.9920604 162.903229,50.886237 162.401585,50.6758664 C161.930163,50.4788452 161.50065,50.1902757 161.136858,49.8261555 C160.780132,49.4667245 160.497276,49.0381582 160.304881,48.5655953 C160.1031,48.0792138 159.999448,47.556262 160.000127,47.0280232 L160.000127,47.0000108 C159.995849,46.4653778 160.099595,45.9355904 160.304881,45.4437637 C160.705069,44.4790359 161.460201,43.7133973 162.40768,43.3117052 C162.913694,43.0980384 163.457092,42.9921261 164.004588,43.0004558 C164.551877,42.994524 165.094809,43.1003456 165.601496,43.3117052 C166.546945,43.7051649 167.300242,44.4666793 167.695152,45.4282012 C167.899854,45.9202124 168.003576,46.4498745 167.999906,46.9844483 L167.999906,47.0124608 C168.002717,47.5409141 167.898979,48.0643008 167.695152,48.5500329 C167.29652,49.5194414 166.538301,50.2882273 165.586258,50.6883163 C165.076992,50.9018072 164.530648,51.0076876 163.980208,50.9995657 L163.983255,50.9871158 Z" id="Shape" fill="#636467"></path>
                <path d="M169,43.1726667 L170.95938,43.1726667 L170.95938,44.3585299 C171.105011,44.1840507 171.262832,44.0183828 171.431855,43.8625657 C171.599542,43.7001948 171.787237,43.5561663 171.991181,43.4333658 C172.204825,43.2972876 172.438853,43.1902037 172.685997,43.11544 C172.972473,43.0384852 173.26987,43.000983 173.568413,43.004166 C174.120794,42.9887475 174.666222,43.1201585 175.138696,43.3824977 C175.561859,43.6256509 175.903318,43.9711417 176.125334,44.3807847 C176.454987,43.9792734 176.866773,43.6402245 177.337787,43.3824977 C177.845753,43.1200763 178.422255,42.9892809 179.005345,43.004166 C179.8278,42.9616963 180.630385,43.2455234 181.20791,43.7830842 C181.73597,44.302363 182,45.0441899 182,46.0085649 L182,51 L180.04062,51 L180.04062,46.5490387 C180.078293,46.0408868 179.91695,45.5370698 179.585516,45.1279104 C179.264111,44.7937292 178.792749,44.6132142 178.307055,44.6383046 C177.810885,44.6238536 177.331666,44.8043652 176.990379,45.1342689 C176.622858,45.5369916 176.439854,46.0542248 176.47969,46.5776521 L176.47969,50.9904622 L174.52031,50.9904622 L174.52031,46.539501 C174.558081,46.0357684 174.397907,45.5362648 174.06868,45.1310896 C173.747275,44.7969085 173.275913,44.6163934 172.790219,44.6414839 C172.285322,44.6233838 171.798201,44.8136 171.463121,45.159703 C171.108962,45.5599526 170.93059,46.0666607 170.962854,46.5808313 L170.962854,50.9936415 L169,50.9936415 L169,43.1726667 Z" id="Shape" fill="#636467"></path>
                <polygon id="Shape" fill="#636467" points="101 65 104 65 104 64.034713 101.883721 64.034713 101.883721 59 101 59"></polygon>
                <path d="M106.065574,62.716 L106.990164,60.276 L107.899016,62.716 L106.065574,62.716 Z M104,65 L105.180328,65 L105.711475,63.628 L108.268852,63.628 L108.819672,65 L110,65 L107.458361,59 L106.549508,59 L104,65 Z" id="Shape" fill="#636467"></path>
                <path d="M111.790381,64.0347433 L111.790381,59.9654451 L112.512677,59.9654451 C112.935208,59.9356942 113.352688,60.1009138 113.696768,60.4340553 C114.025879,60.827902 114.200005,61.4072553 114.167444,62.0000942 C114.178344,62.4176742 114.092433,62.8294088 113.921745,63.1776273 C113.760009,63.4789484 113.535224,63.7077484 113.276415,63.8344825 C112.986204,63.9767357 112.679209,64.0459636 112.370586,64.0387485 L111.790381,64.0347433 Z M111,65 L112.654767,65 C113.028687,64.9991526 113.39813,64.8898936 113.738211,64.6795828 C114.093781,64.4620883 114.400258,64.1206797 114.626279,63.6902948 C114.877855,63.193318 115.008271,62.6023392 114.999268,62.0000942 C115.010255,61.4090194 114.897361,60.8258091 114.673643,60.317904 C114.473953,59.8870536 114.187394,59.5424168 113.847739,59.3246108 C113.502357,59.1056695 113.124964,58.9947852 112.743574,59.0001884 L111,59.0001884 L111,65 Z" id="Shape" fill="#636467"></path>
                <path d="M116.789796,64.0347418 L116.789796,59.9654374 L117.5086,59.9654374 C117.930819,59.9356864 118.34799,60.1009063 118.691815,60.4340482 C119.020683,60.8278955 119.19468,61.4072497 119.162144,62.0000896 C119.173035,62.4176702 119.087188,62.8294055 118.916626,63.1776245 C118.75501,63.4789461 118.530391,63.7077464 118.271774,63.8344807 C117.981777,63.9767341 117.675009,64.0459622 117.366614,64.038747 L116.789796,64.0347418 Z M116.002958,65 L117.656502,65 C118.030145,64.9991526 118.399315,64.8898935 118.739144,64.6795823 C119.094451,64.4620875 119.400701,64.1206784 119.626556,63.6902928 C119.877946,63.1933152 120.008265,62.6023355 119.999269,62.0000896 C120.010247,61.4090138 119.897437,60.8258026 119.673884,60.3178968 C119.474342,59.8870457 119.187995,59.5424084 118.848591,59.3246021 C118.503432,59.1057911 118.126341,58.9949132 117.745243,59.0001792 L116,59.0001792 L116.002958,65 Z" id="Shape" fill="#636467"></path>
                <polygon id="Shape" fill="#636467" points="122 65 125 65 125 64.034713 122.774757 64.034713 122.774757 62.4045394 124.778641 62.4045394 124.778641 61.4392523 122.774757 61.4392523 122.774757 59.965287 124.88932 59.965287 124.88932 59 122 59"></polygon>
                <path d="M127.949691,61.5436809 L127.949691,59.9136439 L128.765225,59.9136439 C128.931009,59.909967 129.096674,59.9260756 129.259488,59.961704 C129.410914,59.9909859 129.551793,60.0688089 129.66549,60.1859843 C129.783277,60.3269189 129.844589,60.5167393 129.834951,60.7106399 C129.846429,60.9178367 129.781167,61.1210678 129.654898,61.2713405 C129.531976,61.3946836 129.379682,61.4740999 129.217123,61.4996258 C129.040968,61.5326157 128.862534,61.5473615 128.684025,61.5436809 L127.949691,61.5436809 Z M127.010591,65 L127.949691,65 L127.949691,62.456822 L128.638129,62.456822 L129.863195,65 L131,65 L129.58782,62.3486868 C129.938768,62.3047595 130.262479,62.1132888 130.495146,61.8120162 C130.711148,61.5028623 130.823709,61.1169496 130.812886,60.7226549 C130.827199,60.347158 130.726119,59.977676 130.52692,59.6773486 C130.337632,59.4230817 130.085555,59.238951 129.803177,59.148688 C129.490352,59.0443345 129.16539,58.994372 128.839365,59.0005028 L127,59.0005028 L127.010591,65 Z" id="Shape" fill="#636467"></path>
                <polygon id="Shape" fill="#636467" points="135.549367 65 136.450633 65 136.450633 59.965287 138 59.965287 138 59 134 59 134 59.965287 135.549367 59.965287"></polygon>
                <path d="M140.072249,61.942475 C140.069218,61.5809173 140.153459,61.2240802 140.31765,60.9029736 C140.47264,60.6006092 140.706326,60.3468782 140.993446,60.1692079 C141.627939,59.799299 142.408995,59.799299 143.043488,60.1692079 C143.331999,60.3463358 143.567036,60.6001162 143.72306,60.9029736 C144.134313,61.739684 144.020397,62.7430525 143.432354,63.4635101 C143.061893,63.8501772 142.552475,64.0684124 142.020355,64.0684124 C141.488234,64.0684124 140.978817,63.8501772 140.608356,63.4635101 C140.248258,63.039294 140.05832,62.4938562 140.076024,61.9348316 L140.072249,61.942475 Z M139.022688,61.9998004 C139.011507,62.5464768 139.141653,63.0866204 139.400228,63.5666959 C139.64535,64.0100624 140.00916,64.3743597 140.449789,64.6176624 C140.926108,64.8739765 141.45829,65.0053687 141.997702,64.999832 C142.542842,65.0028374 143.080537,64.8716836 143.564493,64.6176624 C144.00606,64.3747173 144.372095,64.0121335 144.621605,63.5705176 C144.88082,63.089312 145.010987,62.5477656 144.999144,61.9998004 C145.0119,61.4420026 144.881837,60.8903563 144.621605,60.3985097 C144.375487,59.955219 144.008503,59.5930216 143.564493,59.3551866 C142.57888,58.8736739 141.428379,58.8821438 140.449789,59.3781168 C140.007644,59.6206737 139.64243,59.9850655 139.396453,60.4290833 C139.133903,60.9125328 138.997466,61.4557647 139.000036,62.0074438 L139.022688,61.9998004 Z" id="Shape" fill="#636467"></path>
                <path d="M151.941071,59.5870946 C151.720892,59.3836523 151.458752,59.2301736 151.172831,59.137303 C150.887823,59.0441739 150.589409,58.9978233 150.289355,59.0000785 C149.938687,58.997704 149.590722,59.0610739 149.263755,59.1868563 C148.961084,59.3045643 148.695781,59.5007017 148.495515,59.7548134 C148.28382,60.0346841 148.172906,60.3769617 148.180536,60.7268206 C148.166387,61.0598471 148.266607,61.3877726 148.464785,61.656898 C148.64551,61.8748704 148.877756,62.0451025 149.140836,62.152431 C149.405733,62.2629359 149.676266,62.359633 149.95133,62.4421272 C150.191148,62.5086532 150.419183,62.6115119 150.627381,62.7470706 C150.810094,62.8718637 150.916999,63.0797354 150.91163,63.2997806 C150.912368,63.5383045 150.788899,63.7602873 150.585128,63.8867966 C150.382315,64.0157098 150.146077,64.0832575 149.905235,64.0811981 C149.680582,64.0814522 149.459193,64.0278363 149.259914,63.9249146 C149.060889,63.8212851 148.891694,63.6691263 148.76824,63.4827466 L148,64.2260462 C148.228617,64.4930495 148.522131,64.6977236 148.852746,64.8206858 C149.183178,64.9428159 149.533442,65.0035458 149.886029,64.9998401 C150.245763,65.0037162 150.602536,64.9349827 150.934677,64.7978151 C151.243944,64.6729367 151.510585,64.4625803 151.702917,64.1917401 C151.904192,63.8905446 152.007434,63.5352907 151.998689,63.1739914 C152.0128,62.8397902 151.912626,62.5106722 151.714441,62.2401022 C151.534068,62.0199181 151.301901,61.8471263 151.038389,61.7369456 C150.775482,61.6247193 150.506129,61.5279858 150.231737,61.4472494 C149.99395,61.3822309 149.766423,61.2847329 149.555686,61.1575531 C149.378095,61.0495391 149.270299,60.8572811 149.271437,60.6505847 C149.2611,60.4282816 149.367118,60.2164277 149.551845,60.0902512 C149.746897,59.9718272 149.972438,59.9122317 150.201008,59.9187205 C150.397347,59.9168902 150.592031,59.9544915 150.773347,60.0292625 C150.947984,60.1002149 151.099509,60.217605 151.211243,60.3685121 L151.941071,59.5870946 Z" id="Shape" fill="#636467"></path>
                <path d="M156.986431,59 L156.10431,59 L156.10431,62.6793186 C156.105626,62.8873435 156.071804,63.0935922 156.004822,63.2860148 C155.933005,63.4939982 155.81216,63.6733095 155.656617,63.802685 C155.248117,64.090698 154.738618,64.090698 154.330118,63.802685 C154.174575,63.6733095 154.05373,63.4939982 153.981913,63.2860148 C153.914931,63.0935922 153.88111,62.8873435 153.882425,62.6793186 L153.882425,59 L153.000304,59 L153.000304,62.710632 C152.994008,63.1397081 153.085644,63.5628792 153.265604,63.9357668 C153.435719,64.2696838 153.681526,64.5408297 153.97528,64.7186005 C154.621447,65.0937998 155.378553,65.0937998 156.02472,64.7186005 C156.318474,64.5408297 156.564281,64.2696838 156.734396,63.9357668 C156.914356,63.5628792 157.005992,63.1397081 156.999696,62.710632 L156.986431,59 Z" id="Shape" fill="#636467"></path>
                <path d="M161.89905,59.9026416 C161.704094,59.6032466 161.458322,59.3649689 161.180525,59.2060259 C160.914586,59.0635503 160.62844,58.9935483 160.340266,59.0004672 C159.91598,58.9941361 159.497297,59.1250594 159.12293,59.3811315 C158.776306,59.6233082 158.49016,59.9862117 158.297517,60.4279584 C158.093367,60.918114 157.991113,61.4674146 158.000606,62.022942 C157.99195,62.5674458 158.094293,63.1054172 158.297517,63.5836659 C158.491615,64.0210745 158.777606,64.3798247 159.12293,64.6190729 C159.497525,64.8743774 159.916053,65.0052521 160.340266,64.9997372 C160.657891,65.0052661 160.972754,64.9234917 161.26366,64.7599187 C161.556426,64.5922548 161.81017,64.3298998 162,63.99859 L161.346795,63.400947 C161.219754,63.6188188 161.057763,63.7992463 160.871737,63.9300704 C160.710603,64.038571 160.531178,64.0947731 160.349174,64.0937561 C159.929242,64.1059769 159.525605,63.8853825 159.241695,63.4884998 C158.779966,62.7704819 158.69043,61.7716388 159.013073,60.9380487 C159.134963,60.6368752 159.318742,60.3841436 159.544544,60.2071731 C159.787637,60.0211951 160.066109,59.9250227 160.349174,59.9292882 C160.507091,59.9260768 160.663807,59.964965 160.809386,60.0434875 C160.990102,60.1498367 161.151809,60.3027371 161.284444,60.4926714 L161.89905,59.9026416 Z" id="Shape" fill="#636467"></path>
                <path d="M167.899125,59.9026416 C167.704314,59.6032466 167.458724,59.3649689 167.181133,59.2060259 C166.915391,59.0635503 166.629457,58.9935483 166.341497,59.0004672 C165.917511,58.9939717 165.499107,59.1249048 165.125064,59.3811315 C164.777112,59.621882 164.489943,59.9850478 164.297296,60.4279584 C164.093297,60.918114 163.991119,61.4674146 164.000605,62.022942 C163.991956,62.5674458 164.094224,63.1054172 164.297296,63.5836659 C164.491927,64.021722 164.778808,64.3805647 165.125064,64.6190729 C165.499336,64.8745302 165.917584,65.0054145 166.341497,64.9997372 C166.658886,65.0052661 166.973516,64.9234917 167.264206,64.7599187 C167.556827,64.5924052 167.81041,64.3300216 168,63.99859 L167.34728,63.400947 C167.220333,63.6188188 167.058462,63.7992463 166.872574,63.9300704 C166.711516,64.0384254 166.532254,64.0946185 166.350398,64.0937561 C165.930778,64.1059769 165.52744,63.8853825 165.24374,63.4884998 C164.782354,62.7704819 164.692884,61.7716388 165.015288,60.9380487 C165.136964,60.6367625 165.320634,60.383992 165.546365,60.2071731 C165.789278,60.0211951 166.067543,59.9250227 166.350398,59.9292882 C166.508191,59.9261874 166.664773,59.9650713 166.810269,60.0434875 C166.990851,60.1498367 167.152439,60.3027371 167.284975,60.4926714 L167.899125,59.9026416 Z" id="Shape" fill="#636467"></path>
                <polygon id="Shape" fill="#636467" points="169 65 172 65 172 64.034713 169.776916 64.034713 169.776916 62.4045394 171.778855 62.4045394 171.778855 61.4392523 169.776916 61.4392523 169.776916 59.965287 171.889428 59.965287 171.889428 59 169 59"></polygon>
                <path d="M177.952595,59.588474 C177.732342,59.3851817 177.470224,59.2317557 177.184355,59.1387977 C176.557121,58.9380341 175.879626,58.9555096 175.263755,59.1883383 C174.961176,59.3061801 174.695913,59.5022374 174.495515,59.7561499 C174.284087,60.0360859 174.173203,60.3781819 174.180536,60.727908 C174.16608,61.0608878 174.26633,61.3888279 174.464785,61.6577471 C174.64551,61.8756637 174.877756,62.0458522 175.140836,62.1531532 C175.405736,62.2636233 175.676268,62.3602955 175.95133,62.4427752 C176.191169,62.5092267 176.419213,62.6120628 176.627381,62.7476405 C176.810094,62.8724016 176.916999,63.08022 176.91163,63.3002088 C176.912368,63.5386716 176.788899,63.7605975 176.585128,63.8870745 C176.382223,64.0157527 176.146046,64.0832654 175.905235,64.0814261 C175.680564,64.0818312 175.459139,64.0282204 175.259914,63.9251826 C175.060791,63.8217183 174.891565,63.6695697 174.76824,63.483128 L174,64.2262371 C174.228385,64.4934237 174.521971,64.6980951 174.852746,64.8207244 C175.183155,64.9429075 175.533435,65.0036246 175.886029,64.9998328 C176.245763,65.0037078 176.602536,64.934992 176.934677,64.7978595 C177.243944,64.6730131 177.510585,64.4627106 177.702917,64.1919398 C177.90442,63.890926 178.007683,63.5356905 177.998689,63.1744519 C178.0128,62.8403362 177.912626,62.5113025 177.714441,62.2408019 C177.533958,62.0207873 177.301823,61.8480627 177.038389,61.7377742 C176.774209,61.6254854 176.503573,61.5287763 176.227896,61.4481522 C175.990109,61.3831504 175.762582,61.2856773 175.551845,61.1585302 C175.373684,61.0510864 175.265693,60.858529 175.267596,60.6516917 C175.259263,60.4251508 175.371596,60.2109462 175.563368,60.0876909 C175.758421,59.9692972 175.983962,59.909717 176.212531,59.9162042 C176.408871,59.9143743 176.603555,59.951966 176.78487,60.0267178 C176.959608,60.097479 177.111177,60.2148728 177.222767,60.3658805 L177.952595,59.588474 Z" id="Shape" fill="#636467"></path>
                <path d="M182.944913,59.5870946 C182.724659,59.3837502 182.462542,59.2302849 182.176673,59.137303 C181.891664,59.0441739 181.59325,58.9978233 181.293197,59.0000785 C180.942537,58.9977954 180.594588,59.0611622 180.267596,59.1868563 C179.965017,59.3047283 179.699754,59.5008359 179.499356,59.7548134 C179.287662,60.0346841 179.176747,60.3769617 179.184378,60.7268206 C179.169921,61.0598857 179.270172,61.3879099 179.468626,61.656898 C179.649351,61.8748704 179.881597,62.0451025 180.144678,62.152431 C180.408318,62.2628115 180.677565,62.3595076 180.95133,62.4421272 C181.191148,62.5086532 181.419183,62.6115119 181.627381,62.7470706 C181.810094,62.8718637 181.916999,63.0797354 181.91163,63.2997806 C181.912368,63.5383045 181.788899,63.7602873 181.585128,63.8867966 C181.382315,64.0157098 181.146077,64.0832575 180.905235,64.0811981 C180.680564,64.0816032 180.459139,64.0279788 180.259914,63.9249146 C180.060889,63.8212851 179.891694,63.6691263 179.76824,63.4827466 L179,64.2260462 C179.228501,64.4931751 179.522051,64.697874 179.852746,64.8206858 C180.183178,64.9428159 180.533442,65.0035458 180.886029,64.9998401 C181.245763,65.0037162 181.602536,64.9349827 181.934677,64.7978151 C182.243944,64.6729367 182.510585,64.4625803 182.702917,64.1917401 C182.904192,63.8905446 183.007434,63.5352907 182.998689,63.1739914 C183.0128,62.8397902 182.912626,62.5106722 182.714441,62.2401022 C182.533958,62.0200312 182.301823,61.8472623 182.038389,61.7369456 C181.774209,61.624628 181.503573,61.5278941 181.227896,61.4472494 C180.990093,61.3822777 180.762559,61.2847768 180.551845,61.1575531 C180.373684,61.0500818 180.265693,60.8574751 180.267596,60.6505847 C180.259263,60.4239858 180.371596,60.2097263 180.563368,60.0864394 C180.758421,59.9680154 180.983962,59.9084199 181.212531,59.9149087 C181.408871,59.9130784 181.603555,59.9506797 181.78487,60.0254507 C181.959507,60.0964031 182.111032,60.2137932 182.222767,60.3647003 L182.944913,59.5870946 Z" id="Shape" fill="#636467"></path>
            </g>
        </g>
    </g>
</svg>